<svg xmlns="http://www.w3.org/2000/svg" width="760" height="372" viewBox="0 0 760 372" font-family="-apple-system, BlinkMacSystemFont, 'SF Pro Text', 'Helvetica Neue', Arial, sans-serif" role="img" aria-label="TU VPN – Illustration, kein Screenshot">
<rect width="760" height="372" rx="14" fill="#0d1117"/>
<rect x="0" y="0" width="760" height="30" rx="14" fill="#2c2c2e"/>
<rect x="0" y="16" width="760" height="14" fill="#2c2c2e"/>
<rect x="590" y="10" width="22" height="11" rx="3" fill="none" stroke="#98989d" stroke-width="1.4"/>
<rect x="593" y="13" width="14" height="5" rx="1" fill="#98989d"/>
<path d="M628 21 l7 -8 a10 10 0 0 0 -14 0 z" fill="#98989d"/>
<text x="740" y="20" font-size="13" text-anchor="end" fill="#f5f5f7">Mo 9:41</text>
<rect x="438" y="4" width="40" height="22" rx="5" fill="#0a84ff"/>
<text x="458" y="20" font-size="13.5" font-weight="700" text-anchor="middle" fill="#ffffff">TU</text>
<rect x="428" y="32" width="318" height="289" rx="9" fill="#1c1c1e" stroke="#3a3a3c" stroke-width="1"/>
<text x="450" y="52" font-size="12.5" fill="#f5f5f7"><tspan fill="#3dd68c">●</tspan> Verbunden – Nur TU</text>
<text x="450" y="73" font-size="12.5" fill="#98989d">IP-Adresse: 192.0.2.10</text>
<text x="450" y="94" font-size="12.5" fill="#98989d">Session gültig bis Sa 10.10., 12:39</text>
<text x="450" y="115" font-size="11" fill="#98989d">Darf ruhig an bleiben – Trennen nur zum Profilwechsel</text>
<line x1="438" y1="125.5" x2="736" y2="125.5" stroke="#38383a"/>
<text x="450" y="145" font-size="12.5" fill="#f5f5f7">Trennen</text>
<text x="450" y="166" font-size="12.5" fill="#f5f5f7">Abmelden (Session beenden)</text>
<line x1="438" y1="176.5" x2="736" y2="176.5" stroke="#38383a"/>
<text x="450" y="196" font-size="12.5" fill="#98989d">Account: e12345678@student.tuwien.ac.at</text>
<text x="450" y="217" font-size="12.5" fill="#f5f5f7">Ohne Mac-Passwort verbinden</text>
<text x="436" y="217" font-size="11" fill="#f5f5f7">✓</text>
<text x="450" y="238" font-size="12.5" fill="#f5f5f7">Bei Anmeldung starten</text>
<text x="436" y="238" font-size="11" fill="#f5f5f7">✓</text>
<text x="450" y="259" font-size="12.5" fill="#f5f5f7">Hängende Sessions beenden …</text>
<text x="450" y="280" font-size="12.5" fill="#f5f5f7">Weitere</text>
<text x="732" y="280" font-size="12" text-anchor="end" fill="#98989d">›</text>
<line x1="438" y1="290.5" x2="736" y2="290.5" stroke="#38383a"/>
<text x="450" y="310" font-size="12.5" fill="#f5f5f7">TU VPN beenden</text>
<text x="732" y="310" font-size="12" text-anchor="end" fill="#98989d">⌘Q</text>
<rect x="14" y="42" width="300" height="176" rx="10" fill="#161b22" stroke="#3a3a3c"/>
<text x="28" y="64" font-size="12" font-weight="600" fill="#98989d" letter-spacing="0.4">MENÜLEISTE</text>
<rect x="28" y="75" width="58" height="24" rx="5" fill="#2c2c2e"/>
<text x="57" y="92" font-size="13.5" font-weight="700" text-anchor="middle" fill="#636366">TU</text>
<text x="102" y="92" font-size="13" fill="#f5f5f7">getrennt</text>
<rect x="28" y="109" width="58" height="24" rx="5" fill="#2c2c2e"/>
<text x="57" y="126" font-size="13.5" font-weight="700" text-anchor="middle" fill="#f5f5f7">TU</text>
<text x="102" y="126" font-size="13" fill="#f5f5f7">verbunden – Nur TU</text>
<rect x="28" y="143" width="58" height="24" rx="5" fill="#2c2c2e"/>
<text x="57" y="160" font-size="13.5" font-weight="700" text-anchor="middle" fill="#f5f5f7">TU+</text>
<text x="102" y="160" font-size="13" fill="#f5f5f7">verbunden – Alles getunnelt</text>
<rect x="28" y="177" width="58" height="24" rx="5" fill="#2c2c2e"/>
<text x="57" y="194" font-size="13.5" font-weight="700" text-anchor="middle" fill="#98989d">TU…</text>
<text x="102" y="194" font-size="13" fill="#f5f5f7">beschäftigt</text>
<text x="28" y="354" font-size="11" fill="#98989d">Illustration, kein Screenshot</text>
</svg>
